<svg width="233" height="303" viewBox="0 0 233 303" fill="none" xmlns="http://www.w3.org/2000/svg">
<path d="M224.678 74V285C224.678 291.627 219.305 297 212.678 297H19.6777C13.0503 297 7.67773 291.627 7.67773 285V19C7.67773 12.3726 13.0503 7 19.6777 7H168.678M224.678 74L168.678 7M224.678 74H180.678C174.05 74 168.678 68.6274 168.678 62L168.678 7" stroke="black" stroke-width="5" stroke-linejoin="round"/>
<path d="M52.2667 126.803L74.187 104.882M65.7017 140.238L78.4297 127.51M79.1368 153.673L101.057 131.753M92.5718 167.108L105.3 154.38M106.007 180.543L127.927 158.623M119.442 193.978L132.17 181.25M132.877 207.413L154.797 185.493M146.312 220.848L159.04 208.12M38.8317 119.025L155.504 235.697C156.676 236.869 158.575 236.869 159.747 235.697L192.981 202.463C194.153 201.292 194.153 199.392 192.981 198.221L76.3083 81.548C75.1368 80.3764 73.2373 80.3764 72.0657 81.548L38.8317 114.782C37.6601 115.954 37.6601 117.853 38.8317 119.025Z" stroke="black" stroke-width="5" stroke-linecap="round"/>
<path d="M163.618 106.371C170.205 100.905 179.977 101.814 185.444 108.401V108.401C190.91 114.989 190.001 124.761 183.414 130.227L86.0654 211.008L66.2693 187.152L163.618 106.371Z" fill="white" stroke="black" stroke-width="5" stroke-linejoin="round"/>
<path d="M163.618 106.371C170.205 100.905 179.977 101.814 185.444 108.401V108.401C190.91 114.989 190.001 124.761 183.414 130.227L176.103 136.294L156.307 112.438L163.618 106.371Z" stroke="black" stroke-width="5" stroke-linejoin="round"/>
<path d="M40.7679 228.455L86.0654 211.008L66.2693 187.152L40.7679 228.455Z" stroke="black" stroke-width="5" stroke-linejoin="round"/>
<line x1="165.697" y1="122.188" x2="74.8902" y2="197.541" stroke="black" stroke-width="5"/>
</svg>
