<svg width="233" height="303" viewBox="0 0 233 303" fill="none" xmlns="http://www.w3.org/2000/svg">
<path d="M224.678 74V285C224.678 291.627 219.305 297 212.678 297H19.6777C13.0503 297 7.67773 291.627 7.67773 285V19C7.67773 12.3726 13.0503 7 19.6777 7H168.678M224.678 74L168.678 7M224.678 74H180.678C174.05 74 168.678 68.6274 168.678 62L168.678 7" stroke="black" stroke-linejoin="round"/>
<circle cx="137" cy="185" r="37.5" stroke="black"/>
<path fill-rule="evenodd" clip-rule="evenodd" d="M61 118H128C128.552 118 129 118.448 129 119V147.844C129.332 147.773 129.665 147.706 130 147.643V119C130 117.895 129.105 117 128 117H61C59.8954 117 59 117.895 59 119V186C59 187.105 59.8954 188 61 188H99.1167C99.0907 187.668 99.0691 187.334 99.0517 187H61C60.4477 187 60 186.552 60 186V119C60 118.448 60.4477 118 61 118Z" fill="black"/>
</svg>
